<svg xmlns="http://www.w3.org/2000/svg" viewBox="0 0 400 320" fill="none">
  <defs>
    <linearGradient id="bar1" x1="0" y1="0" x2="0" y2="1">
      <stop offset="0%" stop-color="#FF6B8A"/>
      <stop offset="100%" stop-color="#FF4D6A"/>
    </linearGradient>
    <linearGradient id="bar2" x1="0" y1="0" x2="0" y2="1">
      <stop offset="0%" stop-color="#FF9F43"/>
      <stop offset="100%" stop-color="#FF7B2E"/>
    </linearGradient>
    <linearGradient id="bar3" x1="0" y1="0" x2="0" y2="1">
      <stop offset="0%" stop-color="#C084FC"/>
      <stop offset="100%" stop-color="#8B5CF6"/>
    </linearGradient>
    <linearGradient id="bar4" x1="0" y1="0" x2="0" y2="1">
      <stop offset="0%" stop-color="#A78BFA"/>
      <stop offset="100%" stop-color="#7C3AED"/>
    </linearGradient>
    <linearGradient id="bar5" x1="0" y1="0" x2="0" y2="1">
      <stop offset="0%" stop-color="#FF9F43"/>
      <stop offset="100%" stop-color="#F97316"/>
    </linearGradient>
    <linearGradient id="bar6" x1="0" y1="0" x2="0" y2="1">
      <stop offset="0%" stop-color="#34D399"/>
      <stop offset="100%" stop-color="#10B981"/>
    </linearGradient>
    <linearGradient id="wave" x1="0" y1="0" x2="1" y2="0">
      <stop offset="0%" stop-color="#8B5CF6"/>
      <stop offset="30%" stop-color="#06B6D4"/>
      <stop offset="60%" stop-color="#22D3EE"/>
      <stop offset="100%" stop-color="#34D399"/>
    </linearGradient>
  </defs>

  <!-- Bars -->
  <rect x="108" y="120" width="28" height="65" rx="4" fill="url(#bar1)"/>
  <rect x="144" y="80" width="28" height="105" rx="4" fill="url(#bar2)"/>
  <rect x="180" y="40" width="28" height="145" rx="4" fill="url(#bar3)"/>
  <rect x="216" y="60" width="28" height="125" rx="4" fill="url(#bar4)"/>
  <rect x="252" y="20" width="28" height="165" rx="4" fill="url(#bar5)"/>

  <!-- Wave line -->
  <path d="M100 170 C120 170, 130 150, 150 145 C170 140, 180 165, 200 175 C220 185, 235 140, 255 130 C275 120, 285 155, 310 160"
        stroke="url(#wave)" stroke-width="5" fill="none" stroke-linecap="round"/>

  <!-- Nodes on wave -->
  <circle cx="122" cy="161" r="6" fill="#8B5CF6"/>
  <circle cx="158" cy="143" r="6" fill="#06B6D4"/>
  <circle cx="200" cy="175" r="6" fill="#22D3EE"/>
  <circle cx="244" cy="135" r="6" fill="#22D3EE"/>
  <circle cx="290" cy="155" r="6" fill="#34D399"/>

  <!-- Green swoosh at end -->
  <path d="M270 140 C285 125, 295 145, 310 150 C320 155, 320 130, 330 120"
        stroke="#34D399" stroke-width="4" fill="none" stroke-linecap="round"/>
  <circle cx="330" cy="120" r="5" fill="#34D399"/>

  <!-- PLOTNODE text -->
  <text x="200" y="260" text-anchor="middle" font-family="Inter, sans-serif" font-weight="900" font-size="52" letter-spacing="6" fill="#8B5CF6">PLOTNODE</text>
</svg>
